<svg xmlns="http://www.w3.org/2000/svg" viewBox="0 0 99.08 106.74"><defs><style>.cls-1{fill:none;stroke:#231f20;stroke-linecap:round;stroke-linejoin:round;stroke-width:4px;}</style></defs><title>Jan</title><g id="Layer_2" data-name="Layer 2"><g id="Layer_1-2" data-name="Layer 1"><path class="cls-1" d="M54.12,51.35c-5-6.24-6.7-13.21-6.53-20.76,0-1.37,0-2.75.09-4.12,0-.69-.19-1-.88-1.12a25.43,25.43,0,0,0-10.74.35C31,27.18,28,30.93,25.67,35.38c-.88,1.71-1.67,3.48-2.45,5.24-.21.49-.33.93-1,.92-2.34,0-4.68,0-7.15,0a26.94,26.94,0,0,1,7.29-14.88c5.72-5.93,13-8.76,21-9.92A43.67,43.67,0,0,1,55,16.39c1.13.13,1.53-.07,1.61-1.38.24-4.13,1.09-8.08,4.39-11C65.18.29,72.6,2,74.45,7.12c1.06,2.94-.06,5.38-2,7.56A15.61,15.61,0,0,1,64,19.4c-1.24.29-1.39.86-1.19,1.93.58,3.1,2.78,4.49,5.54,5.2a25.63,25.63,0,0,0,11.94-.15,32.46,32.46,0,0,0,13.57-5.94c.79-.61,1.5-1.34,2.42-2.18.29,2.81.56,5.41.83,8,.07.66-.44,1-.86,1.34a33.06,33.06,0,0,1-17.48,7.66,58.48,58.48,0,0,1-13.09.14,3,3,0,0,0-3.4,1.8C59.68,41.93,56.91,46.53,54.12,51.35Z"/><path class="cls-1" d="M42,35.68A35,35,0,0,0,43.72,47.9a25.65,25.65,0,0,0,8.43,11.38c3.49,2.79,7.15,5.36,10.63,8.17a28.28,28.28,0,0,1,7.3,8.72,21.64,21.64,0,0,1,2.13,10.92,53.07,53.07,0,0,1-3,15.31c-.76,2.32-.76,2.32-3.24,2.32-2.19,0-4.38,0-6.57,0-1.27,0-1.28-.36-.75-1.35a29.91,29.91,0,0,0,3.16-8.85,17.3,17.3,0,0,0-5-15.89c-3.2-3.3-7-5.89-10.53-8.77a40.32,40.32,0,0,1-6.68-6.44,16.71,16.71,0,0,1-3.54-13.71A36.9,36.9,0,0,1,42,35.68Z"/><path class="cls-1" d="M30.63,57.31a22.05,22.05,0,0,0,3.08,7.8A22.65,22.65,0,0,0,38,69.8c.9.78.59,1.39.22,2.17A89.73,89.73,0,0,1,26.73,89.7a127.41,127.41,0,0,1-13.12,14.13,2.87,2.87,0,0,1-2.18.83c-3.07,0-6.14,0-9.43,0a19.7,19.7,0,0,1,3.09-3.2,114.17,114.17,0,0,0,13-14.23,52.44,52.44,0,0,0,9.14-21.07A24,24,0,0,1,30.63,57.31Z"/></g></g></svg>