<svg width="16" height="14" viewBox="0 0 16 14" fill="none" xmlns="http://www.w3.org/2000/svg">
<path d="M10.9021 6.40197L8.22915 9.40019C8.17501 9.46093 8.10721 9.50981 8.03057 9.54335C7.95392 9.57689 7.8703 9.59428 7.78564 9.59428C7.70099 9.59428 7.61737 9.57689 7.54072 9.54335C7.46408 9.50981 7.39628 9.46093 7.34214 9.40019L4.66918 6.40197C4.59913 6.32334 4.55451 6.22772 4.54055 6.1263C4.52659 6.02487 4.54386 5.92183 4.59035 5.82923C4.63684 5.73663 4.71061 5.6583 4.80305 5.6034C4.89549 5.54851 5.00276 5.51931 5.11233 5.51923L10.459 5.51923C10.5685 5.51931 10.6758 5.54851 10.7682 5.6034C10.8607 5.6583 10.9345 5.73663 10.9809 5.82923C11.0274 5.92183 11.0447 6.02487 11.0307 6.1263C11.0168 6.22772 10.9722 6.32334 10.9021 6.40197Z" fill="black" fill-opacity="0.25"/>
<path fill-rule="evenodd" clip-rule="evenodd" d="M0.285645 7C0.285645 3.13531 3.6449 0 7.78564 0C11.9264 0 15.2856 3.13531 15.2856 7C15.2856 10.8647 11.9264 14 7.78564 14C3.6449 14 0.285645 10.8647 0.285645 7ZM7.78564 1.07692C4.28215 1.07692 1.43949 3.73008 1.43949 7C1.43949 10.2699 4.28215 12.9231 7.78564 12.9231C11.2891 12.9231 14.1318 10.2699 14.1318 7C14.1318 3.73008 11.2891 1.07692 7.78564 1.07692Z" fill="black" fill-opacity="0.25"/>
</svg>
