<svg width="19" height="19" viewBox="0 0 19 19" fill="none" xmlns="http://www.w3.org/2000/svg">
<g clip-path="url(#clip0_766_526)">
<path d="M12.1818 18.2576H11.3901V17.9381L8.6826 12.1364H3.2205V18.2576H2.42883V11.3447H9.1865L12.1818 17.7624V18.2576Z" fill="#0014CB"/>
<path d="M13.8114 16.2097H6.08314C5.76873 16.2265 5.45579 16.1562 5.1787 16.0067C4.90161 15.8572 4.67109 15.6342 4.51247 15.3622L4.48239 15.3199L0.672889 9.32141C0.0593475 8.39952 0.299222 7.70681 0.730681 7.36837C0.870867 7.24 1.03787 7.14444 1.21958 7.08864C1.40129 7.03284 1.59315 7.0182 1.78122 7.04577C2.29858 7.14077 2.75616 7.59123 3.36178 8.60021C4.97956 11.2214 5.96637 12.8241 6.3056 13.3819H11.3786C12.9928 13.3819 13.8114 13.9261 13.8114 14.9996V16.2097ZM1.58924 7.81844C1.45033 7.83326 1.32028 7.89383 1.21953 7.99062C0.934535 8.21427 1.20766 8.69362 1.33828 8.88956L5.16006 14.9094C5.24561 15.0766 5.37923 15.2144 5.54373 15.305C5.70823 15.3957 5.89609 15.435 6.08314 15.418H13.0197V14.9989C13.0197 14.7305 13.0197 14.1727 11.3786 14.1727H5.83693L5.72808 13.9519C5.65564 13.826 3.86766 10.9261 2.68649 9.01108C2.51826 8.73123 2.01358 7.89285 1.63872 7.82358C1.62244 7.82023 1.60587 7.81851 1.58924 7.81844Z" fill="#0014CB"/>
<path d="M15.4518 9.69225H13.4156V8.90058H15.4518C15.7868 8.90009 16.1181 8.83102 16.4254 8.69763C16.7327 8.56424 17.0094 8.36935 17.2386 8.12497C17.4677 7.88058 17.6443 7.59187 17.7577 7.27663C17.871 6.96139 17.9186 6.62628 17.8975 6.29195C17.8764 5.95762 17.7871 5.63114 17.6351 5.33263C17.483 5.03412 17.2715 4.7699 17.0135 4.55624C16.7555 4.34257 16.4564 4.18399 16.1348 4.09026C15.8132 3.99654 15.4758 3.96965 15.1434 4.01125L14.6985 4.06706V3.5782C14.6965 2.9269 14.4359 2.30306 13.9739 1.84393C13.512 1.3848 12.8865 1.12798 12.2352 1.12998C11.5839 1.13197 10.9601 1.39261 10.501 1.85457C10.0418 2.31652 9.78501 2.94194 9.787 3.59325V3.94277L9.44144 4.01085C8.82103 4.08767 8.25332 4.39836 7.85418 4.8795C7.45504 5.36064 7.25455 5.97596 7.29365 6.59989C7.33274 7.22381 7.60846 7.8093 8.06454 8.23686C8.52062 8.66441 9.12267 8.9018 9.74781 8.90058H10.9697V9.69225H9.7494C8.95289 9.69185 8.18434 9.39859 7.59003 8.86829C6.99571 8.338 6.61714 7.60769 6.52635 6.81638C6.43556 6.02506 6.63891 5.22799 7.09768 4.57688C7.55645 3.92576 8.23862 3.46607 9.01433 3.28529C9.09119 2.48966 9.45893 1.75037 10.0471 1.20908C10.6352 0.667778 11.4025 0.362543 12.2017 0.351853C13.001 0.341164 13.7761 0.625772 14.3785 1.15115C14.9809 1.67652 15.3683 2.40571 15.4664 3.199C16.3277 3.20104 17.1529 3.54514 17.7604 4.1556C18.368 4.76606 18.7082 5.59286 18.7061 6.45413C18.7041 7.3154 18.36 8.14058 17.7495 8.74814C17.1391 9.3557 16.3122 9.69588 15.451 9.69383L15.4518 9.69225Z" fill="#0014CB"/>
<path d="M12.5891 3.18652H11.7974V12.962H12.5891V3.18652Z" fill="#0014CB"/>
<path d="M13.9497 6.16513L11.9131 8.20166L12.4729 8.76145L14.5095 6.72493L13.9497 6.16513Z" fill="#0014CB"/>
<path d="M10.4368 4.53542L9.87701 5.09521L11.9133 7.13146L12.4731 6.57167L10.4368 4.53542Z" fill="#0014CB"/>
<path d="M10.9713 11.3447H8.93433V12.1364H10.9713V11.3447Z" fill="#0014CB"/>
</g>
<defs>
<clipPath id="clip0_766_526">
<rect width="19" height="19" fill="white"/>
</clipPath>
</defs>
</svg>
