<svg width="15" height="15" viewBox="0 0 15 15" fill="none" xmlns="http://www.w3.org/2000/svg">
<path d="M10.9256 14.8272H4.07438C3.73169 14.8272 3.40301 14.6912 3.16055 14.449C2.91809 14.2069 2.78166 13.8784 2.78125 13.5357V1.46441C2.78166 1.12173 2.91809 0.793217 3.16055 0.551047C3.40301 0.308876 3.73169 0.172851 4.07438 0.172852H10.9256C11.2683 0.172851 11.597 0.308876 11.8395 0.551047C12.0819 0.793217 12.2183 1.12173 12.2188 1.46441V13.5357C12.2183 13.8784 12.0819 14.2069 11.8395 14.449C11.597 14.6912 11.2683 14.8272 10.9256 14.8272ZM4.07438 0.797852C3.89767 0.7981 3.72827 0.868406 3.60332 0.993357C3.47837 1.11831 3.40806 1.28771 3.40781 1.46441V13.5357C3.40806 13.7124 3.47837 13.8818 3.60332 14.0067C3.72827 14.1317 3.89767 14.202 4.07438 14.2022H10.9256C11.1026 14.2024 11.2724 14.1323 11.3977 14.0073C11.523 13.8823 11.5935 13.7126 11.5938 13.5357V1.46441C11.5935 1.28771 11.5232 1.11831 11.3982 0.993357C11.2733 0.868406 11.1039 0.7981 10.9272 0.797852H4.07438Z" fill="#0014CB"/>
<path d="M11.9062 6.34375H3.09375C3.01087 6.34375 2.93138 6.31083 2.87278 6.25222C2.81417 6.19362 2.78125 6.11413 2.78125 6.03125C2.78125 5.94837 2.81417 5.86888 2.87278 5.81028C2.93138 5.75167 3.01087 5.71875 3.09375 5.71875H11.9062C11.9891 5.71875 12.0686 5.75167 12.1272 5.81028C12.1858 5.86888 12.2188 5.94837 12.2188 6.03125C12.2188 6.11413 12.1858 6.19362 12.1272 6.25222C12.0686 6.31083 11.9891 6.34375 11.9062 6.34375Z" fill="#0014CB"/>
<path d="M4.71313 7.01074H4.08813V9.29449H4.71313V7.01074Z" fill="#0014CB"/>
<path d="M4.71313 2.76904H4.08813V5.05311H4.71313V2.76904Z" fill="#0014CB"/>
</svg>
