<svg width="17" height="17" viewBox="0 0 17 17" fill="none" xmlns="http://www.w3.org/2000/svg">
<path d="M7.61459 9.91683H5.48959C4.78445 9.91683 4.42709 9.44012 4.42709 8.50016C4.42709 7.5602 4.78445 7.0835 5.48959 7.0835H7.61459V7.79183H5.48959C5.32349 7.79183 5.13543 7.79183 5.13543 8.50016C5.13543 9.2085 5.32349 9.2085 5.48959 9.2085H7.61459V9.91683Z" fill="#0014CB"/>
<path d="M13.9896 9.91683H13.6354C12.9303 9.91683 12.5729 9.44012 12.5729 8.50016C12.5729 7.5602 12.9303 7.0835 13.6354 7.0835H13.9896C14.7308 7.0835 15.2292 7.653 15.2292 8.50016C15.2292 9.34733 14.7308 9.91683 13.9896 9.91683ZM13.6354 7.79183C13.4693 7.79183 13.2812 7.79183 13.2812 8.50016C13.2812 9.2085 13.4693 9.2085 13.6354 9.2085H13.9896C14.4691 9.2085 14.5208 8.71266 14.5208 8.50016C14.5208 8.28766 14.4691 7.79183 13.9896 7.79183H13.6354Z" fill="#0014CB"/>
<path d="M3.00368 5.19334L2.36618 4.88521C3.10426 3.35627 4.24256 2.479 5.48958 2.479C6.58749 2.479 7.63441 3.18734 8.36576 4.42302L7.75624 4.78357C7.14708 3.754 6.3417 3.18734 5.48958 3.18734C4.52518 3.18734 3.61922 3.91834 3.00368 5.19334Z" fill="#0014CB"/>
<path d="M5.48957 14.5209C3.34155 14.5209 1.59374 11.8201 1.59374 8.50011C1.59238 7.84965 1.66053 7.20091 1.79703 6.56494L2.48907 6.71546C2.36347 7.30201 2.30078 7.90027 2.30207 8.50011C2.30207 11.4294 3.7322 13.8126 5.48957 13.8126C6.3417 13.8126 7.14707 13.2459 7.75624 12.2157L8.36576 12.5762C7.63476 13.8126 6.58749 14.5209 5.48957 14.5209Z" fill="#0014CB"/>
<path d="M3.71876 13.8126C2.98604 13.7961 2.28984 13.4894 1.78324 12.9597C0.777406 11.9808 0.177094 10.3134 0.177094 8.50008C0.177094 6.68675 0.777406 5.01898 1.78289 4.04006C2.03998 3.76822 2.35029 3.55225 2.6945 3.40558C3.03871 3.25892 3.40943 3.18471 3.78357 3.18758L3.7648 3.89591C3.48561 3.89786 3.20973 3.95664 2.95399 4.06868C2.69826 4.18072 2.46801 4.34366 2.2773 4.54758C1.41845 5.38341 0.885427 6.89783 0.885427 8.50008C0.885427 10.1023 1.41845 11.6167 2.27695 12.4522C2.4675 12.6565 2.69775 12.8196 2.9536 12.9318C3.20944 13.0439 3.48548 13.1026 3.7648 13.1042L3.78357 13.8126C3.76197 13.8126 3.74001 13.8126 3.71876 13.8126Z" fill="#0014CB"/>
<path d="M13.2813 13.8125C11.3284 13.8125 9.73959 11.4293 9.73959 8.5C9.73807 7.88165 9.81011 7.26532 9.95421 6.664L10.6427 6.83117C10.5118 7.37774 10.4464 7.93796 10.4479 8.5C10.4479 11.0387 11.719 13.1042 13.2813 13.1042C14.8435 13.1042 16.1146 11.0387 16.1146 8.5C16.1146 5.96133 14.8435 3.89583 13.2813 3.89583C12.5545 3.89583 11.8596 4.35377 11.3252 5.18571L10.7291 4.8025C11.3989 3.7609 12.3052 3.1875 13.2813 3.1875C15.2341 3.1875 16.8229 5.57069 16.8229 8.5C16.8229 11.4293 15.2341 13.8125 13.2813 13.8125Z" fill="#0014CB"/>
<path d="M12.0417 14.5207C9.7959 14.5207 7.96875 11.8198 7.96875 8.49984C7.96875 5.17988 9.7959 2.479 12.0417 2.479C12.7771 2.49136 13.4847 2.76232 14.0402 3.24436C14.1095 3.3052 14.1523 3.39064 14.1595 3.48252C14.1668 3.5744 14.1379 3.66549 14.0791 3.73645C14.0203 3.8074 13.9361 3.85262 13.8444 3.86251C13.7528 3.87241 13.6609 3.84619 13.5883 3.78942C13.1609 3.41098 12.6125 3.19748 12.0417 3.18734C10.1865 3.18734 8.67708 5.57052 8.67708 8.49984C8.67708 11.4292 10.1865 13.8123 12.0417 13.8123C12.6242 13.8013 13.183 13.5795 13.6145 13.1879C13.6499 13.1568 13.6911 13.1331 13.7357 13.1181C13.7804 13.1031 13.8276 13.0971 13.8746 13.1006C13.9215 13.104 13.9674 13.1168 14.0093 13.1382C14.0513 13.1596 14.0886 13.1892 14.119 13.2251C14.1494 13.2611 14.1723 13.3028 14.1864 13.3477C14.2005 13.3927 14.2055 13.44 14.2011 13.4869C14.1967 13.5338 14.183 13.5793 14.1608 13.6208C14.1386 13.6624 14.1083 13.6991 14.0717 13.7288C13.5114 14.2267 12.7912 14.5076 12.0417 14.5207Z" fill="#0014CB"/>
</svg>
