<svg width="18" height="18" viewBox="0 0 18 18" fill="none" xmlns="http://www.w3.org/2000/svg">
<path d="M18 14.4375H0V2.4375H18V14.4375ZM0.75 13.6875H17.25V3.1875H0.75V13.6875Z" fill="#0014CB"/>
<path d="M9.15525 12.5625H3.59475L3.21112 12.1793C2.28262 12.0859 1.5 11.2215 1.5 10.6875V9.5625H11.25V10.6875C11.25 11.2215 10.4674 12.0859 9.53888 12.1793L9.15525 12.5625ZM3.90525 11.8125H8.84475L9.21975 11.4375H9.375C9.61253 11.4197 9.84129 11.3402 10.0386 11.2068C10.2359 11.0734 10.395 10.8908 10.5 10.677V10.3125H2.25V10.6875C2.35736 10.8986 2.51726 11.0785 2.71429 11.2098C2.91133 11.3412 3.13887 11.4196 3.375 11.4375H3.53025L3.90525 11.8125Z" fill="#0014CB"/>
<path d="M15 12.9375C14.7033 12.9375 14.4133 12.8495 14.1666 12.6847C13.92 12.5199 13.7277 12.2856 13.6142 12.0115C13.5006 11.7374 13.4709 11.4358 13.5288 11.1449C13.5867 10.8539 13.7296 10.5866 13.9393 10.3768C14.1491 10.1671 14.4164 10.0242 14.7074 9.96632C14.9983 9.90844 15.2999 9.93815 15.574 10.0517C15.8481 10.1652 16.0824 10.3575 16.2472 10.6041C16.412 10.8508 16.5 11.1408 16.5 11.4375C16.5 11.8353 16.342 12.2169 16.0607 12.4982C15.7794 12.7795 15.3978 12.9375 15 12.9375ZM15 10.6875C14.8517 10.6875 14.7067 10.7315 14.5833 10.8139C14.46 10.8963 14.3639 11.0134 14.3071 11.1505C14.2503 11.2875 14.2355 11.4383 14.2644 11.5838C14.2934 11.7293 14.3648 11.8629 14.4697 11.9678C14.5746 12.0727 14.7082 12.1442 14.8537 12.1731C14.9992 12.202 15.15 12.1872 15.287 12.1304C15.4241 12.0736 15.5412 11.9775 15.6236 11.8542C15.706 11.7308 15.75 11.5858 15.75 11.4375C15.75 11.2386 15.671 11.0478 15.5303 10.9072C15.3897 10.7665 15.1989 10.6875 15 10.6875Z" fill="#0014CB"/>
<path d="M15 9.5625C14.7033 9.5625 14.4133 9.47453 14.1666 9.30971C13.92 9.14488 13.7277 8.91061 13.6142 8.63653C13.5006 8.36244 13.4709 8.06084 13.5288 7.76987C13.5867 7.47889 13.7296 7.21162 13.9393 7.00184C14.1491 6.79206 14.4164 6.6492 14.7074 6.59132C14.9983 6.53344 15.2999 6.56315 15.574 6.67668C15.8481 6.79021 16.0824 6.98247 16.2472 7.22915C16.412 7.47582 16.5 7.76583 16.5 8.0625C16.5 8.46033 16.342 8.84186 16.0607 9.12316C15.7794 9.40447 15.3978 9.5625 15 9.5625ZM15 7.3125C14.8517 7.3125 14.7067 7.35649 14.5833 7.4389C14.46 7.52131 14.3639 7.63844 14.3071 7.77549C14.2503 7.91253 14.2355 8.06333 14.2644 8.20882C14.2934 8.3543 14.3648 8.48794 14.4697 8.59283C14.5746 8.69772 14.7082 8.76915 14.8537 8.79809C14.9992 8.82703 15.15 8.81218 15.287 8.75541C15.4241 8.69864 15.5412 8.60252 15.6236 8.47918C15.706 8.35584 15.75 8.21084 15.75 8.0625C15.75 7.86359 15.671 7.67282 15.5303 7.53217C15.3897 7.39152 15.1989 7.3125 15 7.3125Z" fill="#0014CB"/>
<path d="M12.75 2.8125H12V14.0625H12.75V2.8125Z" fill="#0014CB"/>
<path d="M4.125 14.8125H1.5V15.5625H4.125V14.8125Z" fill="#0014CB"/>
<path d="M16.5 14.8125H13.875V15.5625H16.5V14.8125Z" fill="#0014CB"/>
</svg>
