<svg width="15" height="16" viewBox="0 0 15 16" fill="none" xmlns="http://www.w3.org/2000/svg">
<g clip-path="url(#clip0_766_537)">
<path d="M6.5625 12.3398H4.375V3.33984H7.8125C8.55817 3.34073 9.27306 3.65708 9.80032 4.2195C10.3276 4.78192 10.6242 5.54446 10.625 6.33984V6.67318C10.6242 7.46856 10.3276 8.23111 9.80032 8.79352C9.27306 9.35594 8.55817 9.6723 7.8125 9.67318H6.5625V12.3398ZM5 11.6732H5.9375V9.00651H7.8125C8.39243 9.00572 8.9484 8.75963 9.35847 8.32222C9.76855 7.8848 9.99926 7.29177 10 6.67318V6.33984C9.99934 5.72122 9.76866 5.12814 9.35857 4.69071C8.94847 4.25328 8.39246 4.00722 7.8125 4.00651H5V11.6732ZM7.8125 8.00651H5.9375V5.00651H7.8125C8.14402 5.00651 8.46196 5.14699 8.69638 5.39703C8.9308 5.64708 9.0625 5.98622 9.0625 6.33984V6.67318C9.0625 7.0268 8.9308 7.36594 8.69638 7.61599C8.46196 7.86603 8.14402 8.00651 7.8125 8.00651ZM6.5625 7.33984H7.8125C7.97826 7.33984 8.13723 7.26961 8.25444 7.14458C8.37165 7.01956 8.4375 6.84999 8.4375 6.67318V6.33984C8.4375 6.16303 8.37165 5.99346 8.25444 5.86844C8.13723 5.74341 7.97826 5.67318 7.8125 5.67318H6.5625V7.33984Z" fill="#0014CB"/>
<path d="M12.5 14.3398H2.5C2.25136 14.3398 2.0129 14.2345 1.83709 14.047C1.66127 13.8594 1.5625 13.6051 1.5625 13.3398V2.33984C1.5625 2.07463 1.66127 1.82027 1.83709 1.63274C2.0129 1.4452 2.25136 1.33984 2.5 1.33984H12.5C12.7486 1.33984 12.9871 1.4452 13.1629 1.63274C13.3387 1.82027 13.4375 2.07463 13.4375 2.33984V13.3398C13.4375 13.6051 13.3387 13.8594 13.1629 14.047C12.9871 14.2345 12.7486 14.3398 12.5 14.3398ZM2.5 2.00651C2.41712 2.00651 2.33763 2.04163 2.27903 2.10414C2.22042 2.16665 2.1875 2.25144 2.1875 2.33984V13.3398C2.1875 13.4282 2.22042 13.513 2.27903 13.5755C2.33763 13.6381 2.41712 13.6732 2.5 13.6732H12.5C12.5829 13.6732 12.6624 13.6381 12.721 13.5755C12.7796 13.513 12.8125 13.4282 12.8125 13.3398V2.33984C12.8125 2.25144 12.7796 2.16665 12.721 2.10414C12.6624 2.04163 12.5829 2.00651 12.5 2.00651H2.5Z" fill="#0014CB"/>
<path d="M8.75 14.0063H8.125V16.0063H8.75V14.0063Z" fill="#0014CB"/>
<path d="M6.875 14.0063H6.25V16.0063H6.875V14.0063Z" fill="#0014CB"/>
<path d="M8.75 1.67301H8.125V1.00635C8.125 0.917942 8.09208 0.833157 8.03347 0.770645C7.97487 0.708133 7.89538 0.673014 7.8125 0.673014H7.1875C7.10462 0.673014 7.02513 0.708133 6.96653 0.770645C6.90792 0.833157 6.875 0.917942 6.875 1.00635V1.67301H6.25V1.00635C6.25 0.741131 6.34877 0.486777 6.52459 0.299241C6.7004 0.111704 6.93886 0.00634766 7.1875 0.00634766H7.8125C8.06114 0.00634766 8.2996 0.111704 8.47541 0.299241C8.65123 0.486777 8.75 0.741131 8.75 1.00635V1.67301Z" fill="#0014CB"/>
</g>
<defs>
<clipPath id="clip0_766_537">
<rect width="15" height="16" fill="white"/>
</clipPath>
</defs>
</svg>
