<svg width="15" height="15" viewBox="0 0 15 15" fill="none" xmlns="http://www.w3.org/2000/svg">
<g clip-path="url(#clip0_766_507)">
<path d="M7.5 12.1875V12.5" stroke="#0014CB" stroke-width="2" stroke-linecap="round" stroke-linejoin="round"/>
<path d="M0.31781 5.84851C1.19777 4.79964 2.29677 3.95622 3.53758 3.37756C4.77839 2.79889 6.13089 2.49902 7.5 2.49902C8.86911 2.49902 10.2216 2.79889 11.4624 3.37756C12.7032 3.95622 13.8022 4.79964 14.6822 5.84851" stroke="#0014CB" stroke-width="2" stroke-linecap="round" stroke-linejoin="round"/>
<path d="M2.54028 8.07107C3.12384 7.30999 3.87473 6.69341 4.7348 6.26907C5.59488 5.84474 6.54107 5.62402 7.50013 5.62402C8.45918 5.62402 9.40538 5.84474 10.2655 6.26907C11.1255 6.69341 11.8764 7.30999 12.46 8.07107" stroke="#0014CB" stroke-width="2" stroke-linecap="round" stroke-linejoin="round"/>
<path d="M4.78876 10.3198C5.06239 9.8425 5.45717 9.4459 5.93322 9.17009C6.40926 8.89427 6.94968 8.74902 7.49985 8.74902C8.05002 8.74902 8.59044 8.89427 9.06649 9.17009C9.54253 9.4459 9.93732 9.8425 10.2109 10.3198" stroke="#0014CB" stroke-width="2" stroke-linecap="round" stroke-linejoin="round"/>
</g>
<defs>
<clipPath id="clip0_766_507">
<rect width="15" height="15" fill="white"/>
</clipPath>
</defs>
</svg>
